<?xml version="1.0" encoding="UTF-8"?>
<svg width="24px" height="24px" viewBox="0 0 24 24" version="1.1" xmlns="http://www.w3.org/2000/svg" xmlns:xlink="http://www.w3.org/1999/xlink">
    <!-- Generator: Sketch 50 (54983) - http://www.bohemiancoding.com/sketch -->
    <title>Icons/20/Close Copy 2</title>
    <desc>Created with Sketch.</desc>
    <defs></defs>
    <g id="Icons/20/Close-Copy-2" stroke="none" stroke-width="1" fill="none" fill-rule="evenodd">
        <path d="M13.4142136,12 L18.0104076,16.5961941 C18.2056698,16.7914562 18.2056698,17.1080387 18.0104076,17.3033009 L17.3033009,18.0104076 C17.1080387,18.2056698 16.7914562,18.2056698 16.5961941,18.0104076 L12,13.4142136 L7.40380592,18.0104076 C7.20854378,18.2056698 6.89196129,18.2056698 6.69669914,18.0104076 L5.98959236,17.3033009 C5.79433021,17.1080387 5.79433021,16.7914562 5.98959236,16.5961941 L10.5857864,12 L5.98959236,7.40380592 C5.79433021,7.20854378 5.79433021,6.89196129 5.98959236,6.69669914 L6.69669914,5.98959236 C6.89196129,5.79433021 7.20854378,5.79433021 7.40380592,5.98959236 L12,10.5857864 L16.5961941,5.98959236 C16.7914562,5.79433021 17.1080387,5.79433021 17.3033009,5.98959236 L18.0104076,6.69669914 C18.2056698,6.89196129 18.2056698,7.20854378 18.0104076,7.40380592 L13.4142136,12 Z" id="Mask" fill="#000000" fill-rule="nonzero"></path>
    </g>
</svg>
